<?xml version="1.0" standalone="no"?>
<!DOCTYPE svg PUBLIC "-//W3C//DTD SVG 20010904//EN"
 "http://www.w3.org/TR/2001/REC-SVG-20010904/DTD/svg10.dtd">
<svg version="1.0" xmlns="http://www.w3.org/2000/svg"
 width="460.000000pt" height="460.000000pt" viewBox="0 0 460.000000 460.000000"
 preserveAspectRatio="xMidYMid meet">
<metadata>
Created by potrace 1.14, written by Peter Selinger 2001-2017
</metadata>
<g transform="translate(0.000000,460.000000) scale(0.100000,-0.100000)"
fill="#000000" stroke="none">
<path d="M2030 4585 c-92 -11 -131 -18 -250 -41 -72 -14 -237 -67 -352 -113
-153 -61 -444 -224 -470 -265 -4 -6 -8 -7 -8 -3 0 11 -97 -67 -208 -168 -161
-147 -330 -354 -430 -530 -39 -69 -127 -248 -144 -295 -10 -25 -23 -58 -29
-75 -15 -37 -12 -29 -49 -154 -70 -242 -90 -398 -85 -681 2 -118 6 -228 9
-245 6 -32 12 -64 22 -130 7 -51 37 -170 64 -260 11 -38 22 -77 24 -85 20 -76
196 -440 217 -448 5 -2 9 -8 9 -13 0 -11 42 -72 53 -77 4 -2 7 -8 7 -13 0 -9
96 -138 145 -194 54 -61 153 -162 217 -218 77 -68 248 -199 248 -190 0 4 10
-3 22 -14 36 -33 232 -139 351 -189 165 -70 371 -131 500 -150 23 -3 83 -12
132 -19 129 -18 490 -13 625 9 197 33 411 93 540 153 30 14 60 26 65 27 19 3
246 124 255 137 3 3 19 14 37 23 35 17 220 154 257 190 12 11 51 48 87 82 68
64 132 133 189 203 19 24 40 49 45 55 33 39 145 207 176 266 13 25 29 52 37
62 7 9 15 22 16 30 1 7 12 32 24 54 47 91 138 343 156 434 3 14 12 57 20 95 8
39 18 93 21 120 4 28 10 76 14 108 21 158 9 473 -24 650 -31 167 -96 381 -152
505 -15 31 -27 59 -27 62 -1 3 -25 50 -55 105 -57 107 -100 176 -166 265 -22
30 -43 59 -47 65 -65 90 -231 260 -353 362 -69 58 -258 193 -269 193 -4 0 -23
10 -44 23 -205 128 -522 239 -807 282 -145 22 -475 28 -615 10z"/>
</g>
</svg>
